<svg id="Capa_1" enable-background="new 0 0 497 497" height="512" viewBox="0 0 497 497" width="512" xmlns="http://www.w3.org/2000/svg"><g><path d="m456.729 251.34 20.135 87.419-20.135 87.415c-2.829-.884-5.618-2.2-8.29-4.007l-48.197-32.609-25.862-50.8 25.862-50.79 48.197-32.609c2.672-1.809 5.461-3.135 8.29-4.019z" fill="#c8c6cc"/><path d="m497 281.131v115.253c0 21.736-21.157 35.772-40.271 29.791v-87.415-87.42c19.114-5.972 40.271 8.054 40.271 29.791z" fill="#bd9cde"/><path d="m430.24 267.671-29.998 20.296-25.862 50.79 25.862 50.8 29.998 20.296z" fill="#a29dae"/><path d="m358.097 183.831h-269.996c-23.275 0-42.143 18.868-42.143 42.143v195.844c0 23.275 18.868 42.143 42.143 42.143h269.997c23.275 0 42.143-18.868 42.143-42.143v-195.844c-.001-23.275-18.869-42.143-42.144-42.143z" fill="#bd9cde"/><path d="m75.958 421.819v-195.845c0-23.275 18.868-42.143 42.143-42.143h-30c-23.275 0-42.143 18.868-42.143 42.143v195.844c0 23.275 18.868 42.143 42.143 42.143h30c-23.275.001-42.143-18.867-42.143-42.142z" fill="#a57cd2"/><circle cx="314.934" cy="148.799" fill="#c8c6cc" r="115.761"/><g fill="#a29dae"><path d="m279.125 158.688-28.445 26.215c-6.011-10.667-9.439-22.984-9.439-36.106s3.428-25.439 9.439-36.106l28.445 26.225c5.776 5.323 5.776 14.448 0 19.772z"/><path d="m351.043 213.053c-10.667 6.011-22.984 9.439-36.106 9.439s-25.439-3.428-36.116-9.439l26.225-28.445c5.324-5.775 14.448-5.775 19.772 0z"/><path d="m388.632 148.797c0 13.122-3.428 25.439-9.449 36.106l-28.445-26.215c-5.775-5.324-5.775-14.448 0-19.772l28.445-26.225c6.021 10.667 9.449 22.984 9.449 36.106z"/><path d="m351.043 84.55-26.225 28.445c-5.324 5.775-14.448 5.775-19.772 0l-26.225-28.445c10.677-6.021 22.994-9.449 36.116-9.449s25.439 3.428 36.106 9.449z"/></g><circle cx="83.42" cy="181.141" fill="#c8c6cc" r="83.42"/><circle cx="83.42" cy="181.141" fill="#a29dae" r="34.32"/><g><path d="m165.5 335.257c-4.142 0-7.5-3.358-7.5-7.5 0-4.832-3.931-8.762-8.762-8.762s-8.763 3.931-8.763 8.762c0 4.142-3.358 7.5-7.5 7.5s-7.5-3.358-7.5-7.5c0-13.103 10.66-23.762 23.763-23.762s23.762 10.66 23.762 23.762c0 4.142-3.357 7.5-7.5 7.5z" fill="#423e4f"/></g><g><path d="m310.868 335.257c-4.142 0-7.5-3.358-7.5-7.5 0-4.832-3.931-8.762-8.762-8.762s-8.762 3.931-8.762 8.762c0 4.142-3.358 7.5-7.5 7.5s-7.5-3.358-7.5-7.5c0-13.103 10.66-23.762 23.762-23.762s23.762 10.66 23.762 23.762c0 4.142-3.358 7.5-7.5 7.5z" fill="#423e4f"/></g><ellipse cx="222.622" cy="340.747" fill="#423e4f" rx="19.402" ry="21.711"/></g></svg>