<svg preserveAspectRatio="xMidYMid meet" data-bbox="44.2 398.069 914 161.556" viewBox="44.2 398.069 914 161.556" xmlns="http://www.w3.org/2000/svg" data-type="color" role="img">
    <g>
        <path d="M885.4 558c-12.2-23.8-24-46.9-36.6-71.6v71.2h-37.7v-159h36.7c12.5 26.3 25.1 52.7 38 79.9 13.1-27.2 25.9-53.6 38.7-80.1h33.7v159.1h-36.1v-71.6c-12.8 25.1-24.6 48.3-36.7 72.1z" fill="#254966" data-color="1"></path>
        <path d="M490.3 557.6V398.2h9.2c23.3 0 46.6-.4 69.8.2 25.4.7 42.4 13.4 47.9 34.7 6.5 25.2-2.6 48.7-23.9 61.5-.5.3-1 .6-1.7 1.1 10 20.5 19.9 40.9 30 61.8h-42.2c-9.2-18.4-18.6-37-28.1-55.9h-23.5v55.9c-12.6.1-25 .1-37.5.1zm37.6-92.5c13.8 0 27.1.3 40.4-.1 7.3-.2 11.7-5.8 12.1-13.9.4-9.3-3-15.7-10.3-16-14-.7-28-.2-42.2-.2v30.2z" fill="#254966" data-color="1"></path>
        <path d="M213.3 557.5V398.4h115.6v36H251v23.3h42.9v36h-42.8v28h77.8v35.8H213.3z" fill="#254966" data-color="1"></path>
        <path d="M347.2 434.6v-36h115.3v158.8H347.4v-35.5H425v-28.1h-42.9v-36.1H425v-23.2c-25.7.1-51.6.1-77.8.1z" fill="#19abe0" data-color="2"></path>
        <path d="M647.8 398.5H685v4.8c0 31.7 0 63.5.2 95.2.1 9.5 1.8 19.1 12.1 22.8 11.9 4.3 24.5 5.2 35.2-3.1 8.1-6.3 7.5-16.4 7.5-25.5.2-29.7.1-59.3.1-89v-5.1h37c.2.3.5.6.5.8-.2 35.6.7 71.2-.8 106.7-1.3 32.1-25.8 53.3-57.9 53.5-15 .1-29.9.3-43.5-7.9-17.2-10.4-26.5-26.1-27.1-45.4-1.2-35.5-.7-71.1-.8-106.7-.2-.4 0-.6.3-1.1z" fill="#254966" data-color="1"></path>
        <path d="M134.7 557.7h-34.2c-18.7-53-37.5-106-56.3-159.3h40.6c10.9 32.4 21.7 64.8 32.9 98.2 11.3-33.5 22.1-65.9 33-98.2h40.2c-18.8 53.3-37.5 106.2-56.2 159.3z" fill="#254966" data-color="1"></path>
    </g>
</svg>
